<svg width="24" height="24" viewBox="0 0 24 24" fill="none" xmlns="http://www.w3.org/2000/svg">
<path d="M3.4 5.467C3.14036 5.81319 3 6.23426 3 6.667V20C3 20.5304 3.21071 21.0391 3.58579 21.4142C3.96086 21.7893 4.46957 22 5 22H19C19.5304 22 20.0391 21.7893 20.4142 21.4142C20.7893 21.0391 21 20.5304 21 20V6.667C21 6.23426 20.8596 5.81319 20.6 5.467L18.6 2.8C18.4137 2.55161 18.1721 2.35 17.8944 2.21115C17.6167 2.07229 17.3105 2 17 2H7C6.68951 2 6.38328 2.07229 6.10557 2.21115C5.82786 2.35 5.58629 2.55161 5.4 2.8L3.4 5.467Z" fill="#8AADF4" stroke="#181926" stroke-width="2" stroke-linecap="round" stroke-linejoin="round"/>
<path d="M18.6 2.8L20.6 5.467C20.7338 5.6454 20.8348 5.82591 20.9023 6.03542H3.10234C3.16989 5.83246 3.26999 5.64035 3.4 5.467L5.4 2.8C5.58629 2.55161 5.82786 2.35 6.10557 2.21115C6.38328 2.07229 6.68951 2 7 2H17C17.3105 2 17.6167 2.07229 17.8944 2.21115C18.1721 2.35 18.4137 2.55161 18.6 2.8Z" fill="#7DC4E4"/>
<path d="M3 6.667C3 6.45094 3.03499 6.23779 3.10234 6.03542M21 6.667C21 6.45725 20.9659 6.23249 20.9023 6.03542M3.10234 6.03542C3.16989 5.83246 3.26999 5.64035 3.4 5.467L5.4 2.8C5.58629 2.55161 5.82786 2.35 6.10557 2.21115C6.38328 2.07229 6.68951 2 7 2H17C17.3105 2 17.6167 2.07229 17.8944 2.21115C18.1721 2.35 18.4137 2.55161 18.6 2.8L20.6 5.467C20.7338 5.6454 20.8348 5.82591 20.9023 6.03542M3.10234 6.03542H20.9023" stroke="#1E1E2E" stroke-width="2" stroke-linecap="round" stroke-linejoin="round"/>
<path d="M3.103 6.034H20.897" stroke="#1E1E2E" stroke-width="2" stroke-linecap="round" stroke-linejoin="round"/>
<path d="M16 10C16 11.0609 15.5786 12.0783 14.8284 12.8284C14.0783 13.5786 13.0609 14 12 14C10.9391 14 9.92172 13.5786 9.17157 12.8284C8.42143 12.0783 8 11.0609 8 10" stroke="#181926" stroke-width="2" stroke-linecap="round" stroke-linejoin="round"/>
</svg>
